HIERARCHY
ROOT root
{
	OFFSET 0.000000 0.000000 0.000000
	CHANNELS 6 Xposition Yposition Zposition Zrotation Yrotation Xrotation
	JOINT lhip
	{
		OFFSET 0.058581 -0.082280 -0.017664
		CHANNELS 3 Zrotation Yrotation Xrotation
		JOINT lknee
		{
			OFFSET 0.043451 -0.386469 0.008037
			CHANNELS 3 Zrotation Yrotation Xrotation
			JOINT lankle
			{
				OFFSET -0.014790 -0.426874 -0.037428
				CHANNELS 3 Zrotation Yrotation Xrotation
				JOINT ltoe
				{
					OFFSET 0.041054 -0.060286 0.122042
					CHANNELS 3 Zrotation Yrotation Xrotation
					End Site
					{
						OFFSET 0.000000 0.000000 0.000000
					}
				}
			}
		}
	}
	JOINT rhip
	{
		OFFSET -0.060310 -0.090513 -0.013543
		CHANNELS 3 Zrotation Yrotation Xrotation
		JOINT rknee
		{
			OFFSET -0.043257 -0.383688 -0.004843
			CHANNELS 3 Zrotation Yrotation Xrotation
			JOINT rankle
			{
				OFFSET 0.019056 -0.420046 -0.034562
				CHANNELS 3 Zrotation Yrotation Xrotation
				JOINT rtoe
				{
					OFFSET -0.034840 -0.062106 0.130323
					CHANNELS 3 Zrotation Yrotation Xrotation
					End Site
					{
						OFFSET 0.000000 0.000000 0.000000
					}
				}
			}
		}
	}
	JOINT lowerback
	{
		OFFSET 0.004439 0.124404 -0.038385
		CHANNELS 3 Zrotation Yrotation Xrotation
		JOINT upperback
		{
			OFFSET 0.004488 0.137956 0.026820
			CHANNELS 3 Zrotation Yrotation Xrotation
			JOINT chest
			{
				OFFSET -0.002265 0.056032 0.002855
				CHANNELS 3 Zrotation Yrotation Xrotation
				JOINT lowerneck
				{
					OFFSET -0.013390 0.211636 -0.033468
					CHANNELS 3 Zrotation Yrotation Xrotation
					JOINT upperneck
					{
						OFFSET 0.010113 0.088937 0.050410
						CHANNELS 3 Zrotation Yrotation Xrotation
						End Site
						{
							OFFSET 0.000000 0.000000 0.000000
						}
					}
				}
				JOINT lclavicle
				{
					OFFSET 0.071702 0.114000 -0.018898
					CHANNELS 3 Zrotation Yrotation Xrotation
					JOINT lshoulder
					{
						OFFSET 0.122921 0.045205 -0.019046
						CHANNELS 3 Zrotation Yrotation Xrotation
						JOINT lelbow
						{
							OFFSET 0.255332 -0.015649 -0.022946
							CHANNELS 3 Zrotation Yrotation Xrotation
							JOINT lwrist
							{
								OFFSET 0.265709 0.012698 -0.007375
								CHANNELS 3 Zrotation Yrotation Xrotation
								End Site
								{
									OFFSET 0.000000 0.000000 0.000000
								}
							}
						}
					}
				}
				JOINT rclavicle
				{
					OFFSET -0.082954 0.112472 -0.023707
					CHANNELS 3 Zrotation Yrotation Xrotation
					JOINT rshoulder
					{
						OFFSET -0.113228 0.046853 -0.008472
						CHANNELS 3 Zrotation Yrotation Xrotation
						JOINT relbow
						{
							OFFSET -0.260127 -0.014369 -0.031269
							CHANNELS 3 Zrotation Yrotation Xrotation
							JOINT rwrist
							{
								OFFSET -0.269108 0.006794 -0.006027
								CHANNELS 3 Zrotation Yrotation Xrotation
								End Site
								{
									OFFSET 0.000000 0.000000 0.000000
								}
							}
						}
					}
				}
			}
		}
	}
}
MOTION
Frames: 7
Frame Time: 0.033333
1.504464 0.520573 0.985401 -2.989174 5.008799 84.749892 12.094036 -0.577542 3.821255 -0.896786 -0.101618 0.883756 5.683721 8.648338 -21.020504 0.000000 -0.000000 0.000000 -4.876078 1.719194 7.282061 5.525352 5.492095 0.063051 1.364990 -9.174948 -8.873531 0.000000 -0.000000 0.000000 6.272839 0.304803 -2.993825 0.623208 -2.820289 10.734169 -1.460895 0.579046 -6.409501 0.026059 8.029342 -2.381384 1.720533 10.771232 6.340826 -37.706057 -9.545600 16.019694 -52.645131 -1.033050 7.822772 10.698225 -28.593545 3.074441 13.004965 -17.814201 -5.421485 32.590481 13.922011 18.279785 52.758274 3.512430 8.449547 -9.074835 25.409295 2.812409 1.714529 13.749231 -7.625442 
1.506196 0.519570 0.985269 -3.298985 4.962939 84.581770 11.995364 -0.450180 4.091750 -0.983034 0.018378 0.914973 5.769959 8.674975 -21.146976 0.000000 -0.000000 0.000000 -4.983409 1.840884 7.442623 5.408989 5.657748 0.078440 1.423127 -9.172185 -8.887361 0.000000 -0.000000 0.000000 6.214465 0.295752 -3.035486 0.649416 -2.814718 10.859490 -1.397233 0.567307 -6.481099 -0.204091 8.587458 -2.211582 1.406043 11.560138 6.564752 -37.627662 -9.687635 16.141552 -52.742312 -1.012930 7.762693 10.648814 -28.581749 3.238619 12.820040 -17.894585 -5.283032 32.594869 14.017951 18.411972 52.759713 3.573290 8.402322 -9.160442 25.250341 2.368848 1.853241 13.712988 -7.748478 
1.508111 0.518899 0.985133 -3.634210 4.829068 84.466858 11.736621 -0.483409 4.286570 -1.020394 0.222253 0.951018 5.932799 8.848078 -21.246036 0.000000 -0.000000 0.000000 -5.237951 2.038714 7.456974 5.397262 5.755914 0.168747 1.511334 -9.136300 -8.934565 0.000000 -0.000000 0.000000 6.102035 0.319454 -3.108390 0.665401 -2.802573 11.015818 -1.351404 0.575596 -6.567505 -0.450161 9.167187 -2.047205 1.086336 12.309309 6.682481 -37.578003 -9.815143 16.247686 -52.809878 -1.024506 7.757007 10.598518 -28.574735 3.238376 12.727608 -17.979947 -5.178685 32.642950 14.081195 18.507061 52.692102 3.694030 8.364245 -9.285817 25.010482 1.816218 1.975543 13.682550 -7.773183 
1.509414 0.518299 0.985149 -3.677115 4.845623 84.431148 11.714078 -0.471341 4.340113 -1.030824 0.232877 0.966358 5.950947 8.855787 -21.277851 0.000000 -0.000000 0.000000 -5.266598 2.073828 7.488727 5.380327 5.771639 0.152958 1.524575 -9.140256 -8.915716 0.000000 -0.000000 0.000000 6.070335 0.309461 -3.144026 0.677545 -2.826462 11.054343 -1.332256 0.564912 -6.592158 -0.492741 9.263465 -2.013634 1.034715 12.429605 6.685366 -37.544882 -9.854547 16.268102 -52.831601 -1.039452 7.754828 10.588337 -28.588180 3.255710 12.731356 -17.982751 -5.168831 32.638463 14.090158 18.531409 52.692004 3.707668 8.353637 -9.303815 24.978659 1.741914 1.988088 13.673293 -7.771683 
1.511039 0.517332 0.985122 -4.021105 4.711562 84.329540 11.442442 -0.540561 4.556010 -1.065108 0.483260 1.064889 6.169319 9.009532 -21.480506 0.000000 -0.000000 0.000000 -5.482303 2.385791 7.596670 5.298163 5.841673 0.130740 1.606493 -9.170440 -8.878807 0.000000 -0.000000 0.000000 5.881121 0.332840 -3.385928 0.764787 -2.863291 11.368705 -1.243621 0.593853 -6.718138 -0.770143 10.014660 -1.732613 0.614919 13.295048 6.717482 -37.345871 -10.037859 16.473727 -53.085638 -1.071003 7.787644 10.500332 -28.672217 3.353465 12.518924 -18.047411 -5.067294 32.605164 14.192978 18.681429 52.664143 3.866614 8.322576 -9.479617 24.722964 1.189698 2.200008 13.620134 -7.713177 
1.512767 0.516570 0.985209 -4.147377 4.724824 84.274105 11.366518 -0.516735 4.647140 -1.092129 0.545818 1.115622 6.228489 9.035296 -21.552493 0.000000 -0.000000 0.000000 -5.531390 2.496920 7.651166 5.257186 5.865076 0.108367 1.653039 -9.180682 -8.844213 0.000000 -0.000000 0.000000 5.782995 0.327760 -3.461472 0.803879 -2.893191 11.400853 -1.196383 0.579502 -6.786641 -0.844346 10.270174 -1.659890 0.494585 13.570845 6.816581 -37.222875 -10.106218 16.529687 -53.186506 -1.096418 7.805092 10.451337 -28.704447 3.470952 12.437177 -18.081619 -5.034197 32.586487 14.208240 18.723426 52.676179 3.893896 8.334898 -9.530531 24.641462 1.084395 2.279116 13.613356 -7.606222 
1.513564 0.516179 0.985284 -4.180949 4.741529 84.249113 11.350409 -0.500676 4.684247 -1.104472 0.549375 1.136251 6.238623 9.040318 -21.574464 0.000000 -0.000000 0.000000 -5.563760 2.519020 7.669871 5.241539 5.876473 0.102674 1.672954 -9.183019 -8.827618 0.000000 -0.000000 0.000000 5.761254 0.318866 -3.481944 0.814550 -2.909602 11.387904 -1.178796 0.569702 -6.807733 -0.870451 10.340455 -1.644942 0.466742 13.654689 6.856523 -37.182184 -10.132913 16.537486 -53.206978 -1.107139 7.807343 10.432475 -28.712649 3.517475 12.431377 -18.092014 -5.033652 32.576763 14.207557 18.736118 52.686503 3.899325 8.340078 -9.543452 24.620322 1.069176 2.302169 13.610531 -7.569870 
